<svg width="170" height="16" viewBox="0 0 170 16" fill="none" xmlns="http://www.w3.org/2000/svg">
<path fill-rule="evenodd" clip-rule="evenodd" d="M0 0H10.0917V9.72376H0V0Z" fill="#C51F3F"/>
<path d="M22.4771 11.6689H12.3853V15.5584H22.4771V11.6689Z" fill="#C51F3F"/>
<path d="M32.4771 0H12.3853V3.8895H32.4771V0Z" fill="#C51F3F"/>
<path fill-rule="evenodd" clip-rule="evenodd" d="M32.2018 9.72349H12.3853V5.83398H32.5688V9.72349H32.2018Z" fill="#C51F3F"/>
<path d="M58.8991 15.7352H54.9541L53.8532 12.2877H48.1651L47.0642 15.7352H43.1193L48.9908 0.265625H53.211L58.8991 15.7352ZM52.9358 9.63579L51.2844 4.42032C51.1927 4.06673 51.1009 3.53634 51.0092 3.00596H50.9174C50.9174 3.44795 50.8257 3.88993 50.6422 4.33192L48.8991 9.54739H52.9358V9.63579Z" fill="#231F20"/>
<path d="M64.4954 10.4314V15.7352H60.9174V0.265625H66.6055C70.6422 0.265625 72.6605 1.94518 72.6605 5.2159C72.6605 6.80706 72.1101 8.04463 70.9174 9.01701C69.7248 9.98938 68.1651 10.4314 66.2385 10.4314H64.4954ZM64.4954 2.91756V7.77944H65.9633C67.8899 7.77944 68.8073 6.98386 68.8073 5.3043C68.8073 3.71314 67.7982 2.91756 65.8715 2.91756H64.4954Z" fill="#231F20"/>
<path d="M89.0826 15.7352H85.1376L84.0367 12.2877H78.3486L77.2477 15.7352H73.3027L79.1743 0.265625H83.4862L89.0826 15.7352ZM83.211 9.63579L81.4679 4.42032C81.3762 4.06673 81.2844 3.53634 81.1927 3.00596H81.1009C81.1009 3.44795 81.0092 3.88993 80.8257 4.33192L79.0826 9.54739H83.211V9.63579Z" fill="#231F20"/>
<path d="M109.725 14.674C108.073 15.558 106.33 16 104.312 16C102.018 16 100.183 15.2928 98.7156 13.8785C97.3394 12.4641 96.6055 10.6077 96.6055 8.22099C96.6055 5.83425 97.4312 3.8895 98.9908 2.29834C100.55 0.79558 102.569 0 104.954 0C106.697 0 108.165 0.265193 109.358 0.79558V2.82873C108.073 2.03315 106.514 1.67956 104.771 1.67956C102.936 1.67956 101.468 2.29834 100.367 3.44751C99.1743 4.68508 98.6238 6.18785 98.6238 8.1326C98.6238 10.0773 99.1743 11.6685 100.183 12.7293C101.284 13.8785 102.661 14.4088 104.495 14.4088C105.78 14.4088 106.881 14.1436 107.798 13.7017V9.37017H104.312V7.69061H109.725V14.674Z" fill="#231F20"/>
<path d="M124.954 15.7352H122.752L120.092 11.4037C119.816 10.9618 119.633 10.6966 119.358 10.343C119.083 10.0778 118.899 9.81259 118.624 9.63579C118.349 9.45899 118.165 9.2822 117.798 9.2822C117.523 9.1938 117.248 9.1938 116.881 9.1938H115.321V15.7352H113.394V0.265625H118.165C118.899 0.265625 119.541 0.354023 120.092 0.530818C120.642 0.707614 121.193 0.972807 121.651 1.3264C122.11 1.67999 122.385 2.12198 122.661 2.65237C122.936 3.18275 123.028 3.80154 123.028 4.42032C123.028 4.95071 122.936 5.48109 122.752 5.92308C122.569 6.36507 122.385 6.80706 122.018 7.16065C121.743 7.51424 121.376 7.77944 120.917 8.04463C120.459 8.30982 120 8.48662 119.45 8.66342C119.725 8.75181 119.908 8.92861 120.183 9.01701C120.367 9.1938 120.55 9.3706 120.734 9.54739C120.917 9.72419 121.101 9.98938 121.284 10.2546C121.468 10.5198 121.651 10.785 121.835 11.1386L124.954 15.7352ZM115.321 1.85679V7.51424H117.89C118.349 7.51424 118.807 7.42585 119.174 7.33745C119.541 7.24905 119.908 6.98386 120.183 6.71866C120.459 6.45347 120.734 6.18828 120.826 5.74629C121.009 5.3927 121.101 4.95071 121.101 4.50872C121.101 3.71314 120.826 3.00596 120.275 2.56397C119.725 2.12198 118.899 1.85679 117.89 1.85679H115.321Z" fill="#231F20"/>
<path d="M133.67 16C131.376 16 129.541 15.2928 128.165 13.7901C126.789 12.3757 126.147 10.4309 126.147 8.1326C126.147 5.65746 126.881 3.62431 128.257 2.20994C129.633 0.707182 131.56 0 133.945 0C136.147 0 137.982 0.707182 139.266 2.12155C140.642 3.53591 141.284 5.48066 141.284 7.77901C141.284 10.3425 140.55 12.2873 139.174 13.7901C137.798 15.2928 135.963 16 133.67 16ZM133.761 1.67956C132.11 1.67956 130.734 2.29834 129.633 3.44751C128.624 4.59668 128.073 6.18785 128.073 8.0442C128.073 9.98895 128.624 11.4917 129.633 12.6409C130.642 13.7901 132.018 14.4088 133.67 14.4088C135.413 14.4088 136.789 13.8785 137.798 12.7293C138.807 11.5801 139.358 10.0773 139.358 8.0442C139.358 6.01105 138.899 4.41989 137.89 3.27072C136.881 2.20994 135.505 1.67956 133.761 1.67956Z" fill="#231F20"/>
<path d="M156.239 9.45899C156.239 13.7905 154.22 16.0004 150.092 16.0004C146.239 16.0004 144.22 13.8789 144.22 9.72419V0.265625H146.147V9.63579C146.147 12.8181 147.523 14.4093 150.275 14.4093C152.936 14.4093 154.312 12.9065 154.312 9.81259V0.265625H156.239V9.45899Z" fill="#231F20"/>
<path d="M162.11 9.90098V15.7352H160.183V0.265625H164.587C166.33 0.265625 167.615 0.707614 168.624 1.50319C169.541 2.29877 170 3.44795 170 4.95071C170 6.45347 169.45 7.60264 168.44 8.57502C167.431 9.54739 165.963 9.98938 164.22 9.98938H162.11V9.90098ZM162.11 1.85679V8.22143H164.037C165.321 8.22143 166.33 7.95623 166.972 7.33745C167.615 6.80706 167.982 5.92308 167.982 4.95071C167.982 2.91756 166.697 1.85679 164.22 1.85679H162.11Z" fill="#231F20"/>
</svg>
