<svg width="114" height="34" viewBox="0 0 114 34" fill="none" xmlns="http://www.w3.org/2000/svg">
<path fill-rule="evenodd" clip-rule="evenodd" d="M5.12258 0C2.38794 0 0.171082 2.21686 0.171082 4.9515V28.8591C0.171082 31.5938 2.38794 33.8106 5.12258 33.8106H109.049C111.783 33.8106 114 31.5938 114 28.8591V4.9515C114 2.21686 111.783 0 109.049 0H5.12258Z" fill="black"/>
<path fill-rule="evenodd" clip-rule="evenodd" d="M30.9203 16.2731C30.9 14.0136 32.7703 12.9144 32.8559 12.8632C31.7966 11.3188 30.1548 11.1078 29.5778 11.091C28.1988 10.9459 26.8613 11.9161 26.1588 11.9161C25.4423 11.9161 24.3606 11.105 23.1948 11.1288C21.6946 11.152 20.2911 12.0205 19.5213 13.3694C17.9328 16.1196 19.1175 20.1611 20.6395 22.3841C21.4008 23.4728 22.2904 24.6884 23.4549 24.6456C24.5941 24.5987 25.0196 23.9194 26.3944 23.9194C27.7565 23.9194 28.1561 24.6456 29.3436 24.6183C30.5663 24.5987 31.336 23.5247 32.0707 22.4261C32.9505 21.1783 33.3038 19.9494 33.3179 19.8863C33.2891 19.8764 30.9434 18.9812 30.9203 16.2731Z" fill="white"/>
<path fill-rule="evenodd" clip-rule="evenodd" d="M28.6771 9.62828C29.2898 8.86204 29.709 7.81959 29.5926 6.76172C28.7058 6.80098 27.5968 7.37513 26.9581 8.12455C26.3931 8.78493 25.8883 9.86734 26.0187 10.8853C27.0149 10.9596 28.0377 10.3826 28.6771 9.62828Z" fill="white"/>
<path fill-rule="evenodd" clip-rule="evenodd" d="M47.4066 24.4887H45.8145L44.9424 21.7483H41.9111L41.0803 24.4887H39.5303L42.5336 15.1592H44.3886L47.4066 24.4887ZM44.6798 20.5988L43.8911 18.1627C43.8077 17.9139 43.6514 17.3278 43.4207 16.4052H43.3927C43.3008 16.802 43.1529 17.3881 42.9496 18.1627L42.175 20.5988H44.6798Z" fill="white"/>
<path fill-rule="evenodd" clip-rule="evenodd" d="M55.1302 21.043C55.1302 22.1871 54.821 23.0915 54.2027 23.7553C53.6489 24.3463 52.9611 24.6415 52.1402 24.6415C51.2541 24.6415 50.6176 24.3232 50.2299 23.6866H50.2018V27.2304H48.7072V19.9767C48.7072 19.2575 48.6883 18.5193 48.6518 17.7621H49.9663L50.0497 18.8284H50.0777C50.5762 18.025 51.3326 17.624 52.3477 17.624C53.1413 17.624 53.8038 17.9374 54.3338 18.5648C54.8652 19.193 55.1302 20.0188 55.1302 21.043ZM53.6074 21.0978C53.6074 20.443 53.4602 19.9032 53.1643 19.4784C52.8411 19.0353 52.4072 18.8138 51.8632 18.8138C51.4944 18.8138 51.1593 18.9372 50.86 19.1804C50.56 19.4258 50.3637 19.7462 50.2718 20.143C50.2256 20.328 50.2024 20.4795 50.2024 20.5986V21.7203C50.2024 22.2096 50.3524 22.6225 50.6525 22.9597C50.9525 23.297 51.3423 23.4652 51.8218 23.4652C52.3848 23.4652 52.8229 23.2479 53.1363 22.8146C53.4504 22.3807 53.6074 21.8086 53.6074 21.0978Z" fill="white"/>
<path fill-rule="evenodd" clip-rule="evenodd" d="M62.8677 21.043C62.8677 22.1871 62.5586 23.0915 61.9396 23.7553C61.3864 24.3463 60.6987 24.6415 59.8778 24.6415C58.9917 24.6415 58.3551 24.3232 57.9682 23.6866H57.9401V27.2304H56.4455V19.9767C56.4455 19.2575 56.4266 18.5193 56.3901 17.7621H57.7046L57.788 18.8284H57.816C58.3138 18.025 59.0702 17.624 60.086 17.624C60.8789 17.624 61.5414 17.9374 62.0728 18.5648C62.6021 19.193 62.8677 20.0188 62.8677 21.043ZM61.3452 21.0978C61.3452 20.443 61.1973 19.9032 60.9015 19.4784C60.5783 19.0353 60.1457 18.8138 59.601 18.8138C59.2316 18.8138 58.8972 18.9372 58.5971 19.1804C58.2971 19.4258 58.1015 19.7462 58.0096 20.143C57.9641 20.328 57.9402 20.4795 57.9402 20.5986V21.7203C57.9402 22.2096 58.0903 22.6225 58.3889 22.9597C58.689 23.2962 59.0787 23.4652 59.5597 23.4652C60.1226 23.4652 60.5607 23.2479 60.8741 22.8146C61.1882 22.3807 61.3452 21.8086 61.3452 21.0978Z" fill="white"/>
<path fill-rule="evenodd" clip-rule="evenodd" d="M71.5183 21.8733C71.5183 22.6669 71.2428 23.3126 70.6896 23.811C70.0818 24.3557 69.2357 24.6277 68.1484 24.6277C67.1445 24.6277 66.3397 24.4342 65.7305 24.0466L66.0768 22.8008C66.733 23.1976 67.4529 23.3967 68.2374 23.3967C68.8003 23.3967 69.2385 23.2691 69.5533 23.0153C69.8666 22.7616 70.023 22.4208 70.023 21.996C70.023 21.6175 69.894 21.2985 69.6353 21.0398C69.378 20.7811 68.9483 20.5406 68.3482 20.3184C66.7147 19.7092 65.8987 18.8168 65.8987 17.6432C65.8987 16.8763 66.1847 16.2475 66.7575 15.7581C67.3281 15.2681 68.0895 15.0234 69.0415 15.0234C69.8905 15.0234 70.5957 15.1714 71.1586 15.4665L70.785 16.6849C70.2592 16.3989 69.6647 16.2559 68.9994 16.2559C68.4737 16.2559 68.0628 16.3856 67.7684 16.6435C67.5195 16.8742 67.3947 17.1553 67.3947 17.4883C67.3947 17.8571 67.5371 18.162 67.8231 18.4018C68.072 18.6233 68.5241 18.8631 69.1803 19.1217C69.983 19.4449 70.5726 19.8228 70.9518 20.256C71.3297 20.6879 71.5183 21.2284 71.5183 21.8733Z" fill="white"/>
<path fill-rule="evenodd" clip-rule="evenodd" d="M76.4604 18.8828H74.813V22.149C74.813 22.9797 75.1032 23.3947 75.6851 23.3947C75.9522 23.3947 76.1737 23.3716 76.349 23.3253L76.3903 24.4603C76.0959 24.5704 75.7082 24.6258 75.228 24.6258C74.6377 24.6258 74.1764 24.4456 73.8434 24.086C73.5118 23.7256 73.345 23.1213 73.345 22.2724V18.8814H72.3635V17.7598H73.345V16.528L74.813 16.085V17.7598H76.4604V18.8828Z" fill="white"/>
<path fill-rule="evenodd" clip-rule="evenodd" d="M83.8934 21.0697C83.8934 22.1037 83.5975 22.9527 83.0072 23.6165C82.3882 24.3001 81.5666 24.6408 80.5424 24.6408C79.5553 24.6408 78.7694 24.3134 78.1834 23.6586C77.5973 23.0038 77.3043 22.1773 77.3043 21.1811C77.3043 20.1387 77.6057 19.2848 78.2107 18.6209C78.8143 17.9563 79.6289 17.624 80.6531 17.624C81.6402 17.624 82.4345 17.9514 83.0339 18.6069C83.6073 19.2427 83.8934 20.0637 83.8934 21.0697ZM82.3431 21.1182C82.3431 20.4978 82.2106 19.9657 81.9421 19.522C81.6287 18.985 81.1808 18.7172 80.6003 18.7172C79.9995 18.7172 79.5431 18.9857 79.2298 19.522C78.9613 19.9664 78.8288 20.5069 78.8288 21.1463C78.8288 21.7667 78.9613 22.2988 79.2298 22.7419C79.5529 23.2789 80.0044 23.5467 80.587 23.5467C81.1576 23.5467 81.6056 23.2732 81.9288 22.7278C82.2043 22.2757 82.3431 21.738 82.3431 21.1182Z" fill="white"/>
<path fill-rule="evenodd" clip-rule="evenodd" d="M88.7513 19.0766C88.6034 19.0492 88.4457 19.0352 88.2802 19.0352C87.7545 19.0352 87.3479 19.2336 87.0618 19.6311C86.813 19.9816 86.6882 20.4247 86.6882 20.9596V24.4893H85.1943L85.2083 19.8807C85.2083 19.1053 85.1893 18.3994 85.1522 17.7628H86.454L86.5087 19.0499H86.5501C86.7078 18.6076 86.9567 18.2515 87.2974 17.9844C87.6304 17.7439 87.99 17.624 88.3777 17.624C88.5158 17.624 88.6406 17.6338 88.7513 17.6514V19.0766Z" fill="white"/>
<path fill-rule="evenodd" clip-rule="evenodd" d="M95.436 20.8074C95.436 21.0752 95.4185 21.3009 95.3813 21.4853H90.8974C90.915 22.1499 91.1316 22.6581 91.548 23.0087C91.9259 23.322 92.4145 23.4791 93.0146 23.4791C93.6785 23.4791 94.2842 23.3732 94.8289 23.1608L95.063 24.1983C94.4265 24.4759 93.675 24.614 92.8078 24.614C91.7646 24.614 90.9458 24.307 90.3499 23.6936C89.7554 23.0802 89.4575 22.2564 89.4575 21.2231C89.4575 20.2087 89.7344 19.3639 90.2889 18.6902C90.8694 17.971 91.6539 17.6113 92.6409 17.6113C93.6105 17.6113 94.3445 17.971 94.8429 18.6902C95.2376 19.2616 95.436 19.9682 95.436 20.8074ZM94.0109 20.4199C94.0207 19.9769 93.9232 19.5941 93.7206 19.2709C93.4619 18.8552 93.0644 18.6477 92.5295 18.6477C92.0409 18.6477 91.6434 18.8503 91.3399 19.2569C91.091 19.5801 90.9431 19.9678 90.8975 20.4192H94.0109V20.4199Z" fill="white"/>
<path d="M42.1863 11.901C42.9189 11.901 43.3866 11.6361 43.7867 11.2022L43.3415 10.7514C43.0034 11.067 42.6878 11.2586 42.2088 11.2586C41.4537 11.2586 40.9071 10.6331 40.9071 9.86107V9.8498C40.9071 9.07779 41.4594 8.46356 42.2032 8.46356C42.6597 8.46356 42.9921 8.65515 43.3133 8.94818L43.7585 8.43538C43.3809 8.07474 42.9414 7.82116 42.2088 7.82116C41.0198 7.82116 40.1802 8.73968 40.1802 9.86107V9.87234C40.1802 11.005 41.0367 11.901 42.1863 11.901Z" fill="white"/>
<path d="M45.8012 11.901C46.7197 11.901 47.3959 11.1909 47.3959 10.3513V10.34C47.3959 9.48915 46.731 8.79603 45.8124 8.79603C44.8996 8.79603 44.2233 9.50042 44.2233 10.3513V10.3626C44.2233 11.2079 44.8939 11.901 45.8012 11.901ZM45.8124 11.3037C45.2884 11.3037 44.9052 10.8697 44.9052 10.3513V10.34C44.9052 9.82162 45.2546 9.39335 45.8012 9.39335C46.3365 9.39335 46.7141 9.82725 46.7141 10.3513V10.3626C46.7141 10.8754 46.3703 11.3037 45.8124 11.3037Z" fill="white"/>
<path d="M48.0847 11.8334H48.7722V10.1541C48.7722 9.69765 49.0257 9.41589 49.4089 9.41589C49.7921 9.41589 50.0119 9.66947 50.0119 10.1372V11.8334H50.6937V10.1541C50.6937 9.67511 50.9529 9.41589 51.3305 9.41589C51.7137 9.41589 51.9334 9.66947 51.9334 10.1428V11.8334H52.6153V9.93432C52.6153 9.20739 52.2265 8.79603 51.5728 8.79603C51.122 8.79603 50.8121 9.00453 50.5698 9.3201C50.412 9.00453 50.1077 8.79603 49.6794 8.79603C49.223 8.79603 48.9637 9.04398 48.7722 9.30883V8.85802H48.0847V11.8334Z" fill="white"/>
<path d="M53.4505 8.40157H54.1831V7.75354H53.4505V8.40157ZM53.4731 11.8334H54.1605V8.85802H53.4731V11.8334Z" fill="white"/>
<path d="M55.046 11.8334H55.7335V10.1541C55.7335 9.68638 56.004 9.41589 56.4041 9.41589C56.8098 9.41589 57.0408 9.67511 57.0408 10.1428V11.8334H57.7227V9.93432C57.7227 9.2412 57.3395 8.79603 56.6633 8.79603C56.1956 8.79603 55.9307 9.03834 55.7335 9.31446V8.85802H55.046V11.8334Z" fill="white"/>
<path d="M59.8703 12.7462C60.4113 12.7462 60.8226 12.6166 61.0931 12.3461C61.3467 12.0926 61.4707 11.7207 61.4707 11.2248V8.85802H60.7888V9.30319C60.5578 9.02707 60.2479 8.79603 59.7463 8.79603C59.0476 8.79603 58.3939 9.31446 58.3939 10.1935V10.2048C58.3939 11.0782 59.042 11.5967 59.7463 11.5967C60.2366 11.5967 60.5465 11.3713 60.7945 11.0557V11.2811C60.7945 11.8841 60.462 12.1884 59.8534 12.1884C59.4477 12.1884 59.1152 12.0757 58.794 11.8784L58.5404 12.3912C58.9293 12.6279 59.3744 12.7462 59.8703 12.7462ZM59.9267 11.0163C59.459 11.0163 59.0814 10.6838 59.0814 10.1992V10.1879C59.0814 9.69765 59.4533 9.37645 59.9267 9.37645C60.4 9.37645 60.8001 9.70892 60.8001 10.1879V10.1992C60.8001 10.6838 60.4 11.0163 59.9267 11.0163Z" fill="white"/>
<path d="M65.036 11.8897C65.6559 11.8897 66.1405 11.5798 66.1405 10.9543V10.943C66.1405 10.4077 65.6446 10.2104 65.2164 10.0752C64.867 9.96813 64.5458 9.8667 64.5458 9.65257V9.6413C64.5458 9.47788 64.6979 9.34827 64.9628 9.34827C65.2107 9.34827 65.515 9.45534 65.8024 9.63003L66.0729 9.14541C65.7573 8.93691 65.3572 8.8073 64.9797 8.8073C64.388 8.8073 63.9203 9.15104 63.9203 9.72019V9.73146C63.9203 10.295 64.4162 10.4809 64.8501 10.5993C65.1995 10.7063 65.515 10.7909 65.515 11.0163V11.0275C65.515 11.2248 65.346 11.3487 65.0529 11.3487C64.743 11.3487 64.4105 11.2248 64.0781 10.9825L63.7738 11.4445C64.1513 11.7432 64.6078 11.8897 65.036 11.8897Z" fill="white"/>
<path d="M68.2535 11.901C69.1721 11.901 69.8483 11.1909 69.8483 10.3513V10.34C69.8483 9.48915 69.1833 8.79603 68.2648 8.79603C67.3519 8.79603 66.6757 9.50042 66.6757 10.3513V10.3626C66.6757 11.2079 67.3463 11.901 68.2535 11.901ZM68.2648 11.3037C67.7407 11.3037 67.3576 10.8697 67.3576 10.3513V10.34C67.3576 9.82162 67.7069 9.39335 68.2535 9.39335C68.7889 9.39335 69.1664 9.82725 69.1664 10.3513V10.3626C69.1664 10.8754 68.8227 11.3037 68.2648 11.3037Z" fill="white"/>
<path d="M71.9571 11.901C72.8756 11.901 73.5518 11.1909 73.5518 10.3513V10.34C73.5518 9.48915 72.8869 8.79603 71.9684 8.79603C71.0555 8.79603 70.3793 9.50042 70.3793 10.3513V10.3626C70.3793 11.2079 71.0498 11.901 71.9571 11.901ZM71.9684 11.3037C71.4443 11.3037 71.0611 10.8697 71.0611 10.3513V10.34C71.0611 9.82162 71.4105 9.39335 71.9571 9.39335C72.4924 9.39335 72.87 9.82725 72.87 10.3513V10.3626C72.87 10.8754 72.5262 11.3037 71.9684 11.3037Z" fill="white"/>
<path d="M74.2406 11.8334H74.9281V10.1541C74.9281 9.68638 75.1985 9.41589 75.5986 9.41589C76.0044 9.41589 76.2354 9.67511 76.2354 10.1428V11.8334H76.9173V9.93432C76.9173 9.2412 76.5341 8.79603 75.8579 8.79603C75.3901 8.79603 75.1253 9.03834 74.9281 9.31446V8.85802H74.2406V11.8334Z" fill="white"/>
<path d="M80.4275 11.8841C80.6923 11.8841 80.867 11.8277 81.0417 11.7319V11.174C80.9065 11.2417 80.7656 11.2755 80.6191 11.2755C80.388 11.2755 80.2528 11.1684 80.2528 10.9036V9.44407H81.053V8.85802H80.2528V8.04093H79.5709V8.85802H79.1934V9.44407H79.5709V11.0106C79.5709 11.6643 79.926 11.8841 80.4275 11.8841Z" fill="white"/>
<path d="M83.0787 11.901C83.9972 11.901 84.6734 11.1909 84.6734 10.3513V10.34C84.6734 9.48915 84.0085 8.79603 83.09 8.79603C82.1771 8.79603 81.5009 9.50042 81.5009 10.3513V10.3626C81.5009 11.2079 82.1715 11.901 83.0787 11.901ZM83.09 11.3037C82.5659 11.3037 82.1827 10.8697 82.1827 10.3513V10.34C82.1827 9.82162 82.5321 9.39335 83.0787 9.39335C83.614 9.39335 83.9916 9.82725 83.9916 10.3513V10.3626C83.9916 10.8754 83.6479 11.3037 83.09 11.3037Z" fill="white"/>
<path d="M88.0547 11.8841C88.3195 11.8841 88.4942 11.8277 88.6689 11.7319V11.174C88.5337 11.2417 88.3928 11.2755 88.2463 11.2755C88.0152 11.2755 87.88 11.1684 87.88 10.9036V9.44407H88.6802V8.85802H87.88V8.04093H87.1982V8.85802H86.8206V9.44407H87.1982V11.0106C87.1982 11.6643 87.5532 11.8841 88.0547 11.8841Z" fill="white"/>
<path d="M89.3684 11.8334H90.0559V10.1541C90.0559 9.68638 90.3264 9.41589 90.7265 9.41589C91.1322 9.41589 91.3632 9.67511 91.3632 10.1428V11.8334H92.0451V9.93432C92.0451 9.2412 91.6619 8.79603 90.9857 8.79603C90.518 8.79603 90.2531 9.03834 90.0559 9.31446V7.71973H89.3684V11.8334Z" fill="white"/>
<path d="M94.2322 11.901C94.7788 11.901 95.162 11.6812 95.4494 11.3431L95.0493 10.9881C94.8069 11.2191 94.5815 11.3431 94.2434 11.3431C93.7983 11.3431 93.4602 11.0782 93.3869 10.588H95.5733C95.579 10.5204 95.5846 10.4584 95.5846 10.3964C95.5846 9.53986 95.1056 8.79603 94.1589 8.79603C93.308 8.79603 92.7051 9.48915 92.7051 10.3457V10.357C92.7051 11.2755 93.3756 11.901 94.2322 11.901ZM93.3813 10.1372C93.4432 9.66947 93.7306 9.35391 94.1533 9.35391C94.6041 9.35391 94.8633 9.70328 94.9084 10.1372H93.3813Z" fill="white"/>
</svg>
