<svg width="117" height="37" viewBox="0 0 117 37" fill="none" xmlns="http://www.w3.org/2000/svg">
<path d="M78.2463 33.1332C78.2463 33.4019 78.2463 33.581 78.2463 33.8496C78.2463 34.3869 78.0639 34.7451 77.6079 35.0138C76.696 35.6406 75.1456 35.6406 74.2337 35.0138C73.8689 34.7451 73.5953 34.3869 73.5953 33.9392C73.5953 33.4019 73.5953 32.8646 73.5953 32.3273C73.5953 31.8796 73.7777 31.5214 74.1425 31.2527C74.2337 31.1632 74.3249 31.0736 74.5073 31.0736C75.4192 30.6259 76.4224 30.6259 77.3343 31.0736C77.8815 31.3423 78.2463 31.79 78.2463 32.5064C78.2463 32.6855 78.2463 32.9541 78.2463 33.1332Z" fill="#019FF8"/>
<path d="M10.2142 28.5664L14.4092 32.1484C14.4092 32.1484 12.5853 36.2677 10.123 36.805C10.123 36.805 6.8399 36.1781 5.83675 31.2529C5.92794 31.2529 7.56947 33.1334 10.2142 28.5664Z" fill="url(#paint0_linear)"/>
<path d="M0 1.88055L5.74535 0V29.9096C5.74535 29.9096 5.74535 30.626 6.01894 31.7006C6.38372 33.3125 7.47808 35.999 10.214 36.805C7.56927 36.9841 0 38.6855 0 27.4918C0 14.8653 0 1.88055 0 1.88055Z" fill="#019FF8"/>
<path d="M116.093 31.5211C113.448 31.5211 109.8 31.5211 107.429 31.5211C107.155 31.5211 106.791 31.6106 106.699 31.342C106.699 31.2524 106.699 31.1629 106.791 31.0733C106.882 30.9838 112.901 22.0288 115.819 17.6409C115.91 17.4618 116.093 17.2827 116.184 17.014C116.366 16.6558 116.457 16.2976 116.457 15.9394C116.549 14.6857 115.454 13.2529 113.813 13.2529C109.8 13.3425 105.879 13.2529 101.866 13.2529C101.684 13.2529 101.592 13.2529 101.228 13.2529L101.866 17.2827C102.14 17.2827 102.504 17.2827 102.778 17.2827C105.149 17.2827 107.429 17.2827 109.8 17.2827C109.982 17.2827 110.256 17.2827 110.438 17.2827C110.53 17.2827 110.621 17.4618 110.53 17.5513C110.438 17.7304 110.256 17.9991 110.165 18.1782C107.703 21.8497 105.24 25.4317 102.778 29.1032C102.14 29.9987 101.501 30.8942 100.954 31.8793C99.9509 33.4912 101.319 35.4613 102.687 35.5508C103.052 35.5508 103.416 35.6404 103.781 35.6404C107.429 35.6404 112.627 35.6404 116.549 35.6404L116.093 31.5211Z" fill="#019FF8"/>
<path d="M97.5798 19.611C97.4886 18.2677 97.1238 17.014 96.2118 15.8499C95.7558 15.3126 95.2087 14.7753 94.6615 14.3275C93.6583 13.6111 92.6552 13.2529 91.3784 13.2529C88.8249 13.2529 84.6299 13.2529 81.5292 13.2529L82.2588 17.2827C84.6299 17.2827 88.0042 17.2827 89.8281 17.2827C90.0105 17.2827 90.1929 17.2827 90.3753 17.2827C91.5608 17.3722 92.4728 18.0886 92.7464 19.2528C92.9287 20.0587 92.9288 20.9542 92.9288 21.7602C92.9288 21.9393 92.8376 22.0288 92.564 22.0288C92.1992 22.0288 91.8344 21.9393 91.4696 21.9393C89.9193 21.8497 88.4601 21.8497 86.9098 22.1184C85.9979 22.2079 85.0859 22.4766 84.1739 22.7452C83.0796 23.1034 82.1676 23.8198 81.5292 24.7153C80.3437 26.3272 79.9789 28.1182 80.2525 29.9987C80.6173 32.5061 82.5324 35.4613 86.545 35.4613C89.2809 35.4613 91.9256 35.4613 94.6615 35.4613C94.9351 35.4613 95.2999 35.4613 95.5734 35.3717C96.8502 35.1031 97.3974 34.3867 97.3974 33.133C97.3974 30.536 97.3974 28.0286 97.5798 25.4317C97.7621 23.4616 97.6709 21.4915 97.5798 19.611ZM92.564 31.5211C91.652 31.5211 90.74 31.5211 89.8281 31.5211C88.9161 31.5211 88.0954 31.5211 87.1834 31.5211C86.6362 31.5211 86.1802 31.4315 85.7243 31.1629C85.1771 30.8047 84.7211 30.3569 84.6299 29.6405C84.5387 28.9241 84.6299 28.2973 84.8123 27.6704C84.9035 27.1331 85.3595 26.8645 85.7243 26.5958C86.1802 26.3272 86.7274 26.2376 87.1834 26.1481C88.3689 25.969 89.5545 25.8795 90.6489 26.0585C91.2872 26.1481 91.9256 26.0585 92.564 26.2376C92.9288 26.3272 92.9288 26.3272 92.9288 26.6854C92.9288 28.1182 92.9288 29.551 92.9288 30.9838C93.2023 31.5211 93.1111 31.5211 92.564 31.5211Z" fill="#019FF8"/>
<path d="M67.029 31.5216C66.2083 31.5216 65.6611 31.1634 65.1139 30.6261C64.6579 30.0888 64.4755 29.462 64.3843 28.8351C64.2931 28.1187 64.202 27.4919 64.2931 26.7755C64.2931 25.4322 64.2931 24.1785 64.2931 22.8353C64.2931 21.4025 64.2931 19.9697 64.2931 18.5369C64.2931 17.1936 64.1108 17.3727 65.4787 17.3727C66.4819 17.3727 68.4882 17.3727 69.9473 17.3727L69.3089 13.2535C67.941 13.2535 65.9347 13.2535 65.0227 13.2535C64.8403 13.2535 64.6579 13.2535 64.4755 13.2535C64.3843 13.2535 64.2931 13.1639 64.2931 13.0744C64.2931 12.8953 64.2931 12.7162 64.2931 12.6266C64.2931 11.8207 64.2931 9.40281 64.2931 7.61182L59.8245 8.50731C59.8245 14.4176 59.8245 22.2084 59.8245 27.4919C59.8245 27.7605 59.8245 28.1187 59.8245 28.3874C59.8245 29.462 60.0981 30.5366 60.5541 31.6112C61.5573 33.8499 63.29 35.2827 65.7523 35.5514C66.1171 35.5514 66.573 35.6409 66.9378 35.6409C67.6674 35.6409 70.0385 35.6409 71.8624 35.6409L71.4064 31.7007C69.6737 31.5216 67.7586 31.5216 67.029 31.5216Z" fill="#019FF8"/>
<path d="M38.5762 35.4616H43.136C43.136 30.0886 43.136 22.9246 43.136 18.268C43.136 17.9994 43.136 17.8203 43.136 17.5516C43.136 17.4621 43.2272 17.3725 43.3184 17.3725C43.5008 17.3725 43.6831 17.3725 43.8655 17.3725C45.2335 17.3725 46.6014 17.3725 47.9694 17.3725C48.243 17.3725 48.6077 17.3725 48.8813 17.3725C50.1581 17.4621 51.07 18.0889 51.4348 19.2531C51.526 19.4322 51.526 19.6113 51.6172 19.7904C51.7996 20.3277 51.7996 20.865 51.7996 21.4023C51.7996 25.0738 51.7996 31.1632 51.7996 35.5511H56.3594C56.3594 31.0736 56.3594 25.1633 56.3594 21.4918C56.3594 20.5068 56.2682 19.6113 56.0858 18.6262C55.5386 16.0293 53.2587 13.3428 49.4285 13.3428C46.7838 13.3428 44.1391 13.3428 41.4944 13.3428C41.0385 13.3428 40.5825 13.4323 40.1265 13.5219C39.3969 13.701 38.8498 14.2383 38.6674 14.9547C38.5762 15.3129 38.5762 15.6711 38.5762 16.0293C38.5762 19.074 38.5762 22.2082 38.5762 25.2529C38.5762 27.9394 38.5762 30.6259 38.5762 33.3124C38.5762 33.4915 38.5762 34.4765 38.5762 35.4616Z" fill="#019FF8"/>
<path d="M34.2895 31.5215C31.8272 31.5215 28.4529 31.5215 26.3554 31.4319C25.8083 31.4319 25.3523 31.4319 24.8051 31.4319C23.6195 31.4319 22.6164 30.626 22.5252 29.1932C22.5252 28.4768 22.5252 27.6708 22.5252 26.9544C22.5252 26.8649 22.5252 26.7753 22.5252 26.6858C22.5252 26.4171 22.6164 26.3276 22.89 26.3276C23.0724 26.3276 23.346 26.3276 23.5284 26.3276C26.0818 26.3276 28.7265 26.3276 31.28 26.3276C31.9184 26.3276 32.5568 26.3276 33.1951 26.238C34.1983 26.1485 34.9279 25.5216 35.2014 24.6261C35.2926 24.2679 35.3838 23.9097 35.3838 23.6411C35.3838 22.9247 35.2926 22.2083 35.2926 21.4919C35.2014 20.4173 35.0191 19.3427 34.5631 18.2681C33.8335 16.2084 32.3744 14.7756 30.2769 13.8801C27.2674 12.6265 23.4372 13.1638 20.8837 15.2234C19.5157 16.298 18.6038 17.6412 18.1478 19.3427C18.0566 19.88 17.9654 20.4173 17.8742 21.0441C17.6918 22.1187 17.6918 23.1933 17.6006 24.2679C17.5094 25.9694 17.4182 27.6708 17.6918 29.2827C17.8742 30.8051 18.4214 32.1483 19.3333 33.402C20.0629 34.2975 20.8837 35.0139 22.0692 35.3721C22.6164 35.5512 23.1636 35.5512 23.7107 35.5512C25.3523 35.5512 26.9938 35.5512 28.6353 35.5512C30.0033 35.5512 32.4656 35.5512 34.2895 35.5512V31.5215ZM22.2516 22.1187C22.434 20.5068 22.9812 19.074 24.3491 18.089C25.4435 17.283 26.7202 17.1039 28.0882 17.4621C29.1825 17.7308 30.0033 18.4472 30.5504 19.4322C31.0064 20.2382 31.0976 21.2232 31.1888 22.1187C31.1888 22.2978 31.0976 22.3874 30.9152 22.4769C30.7328 22.4769 30.5504 22.4769 30.3681 22.4769C29.1825 22.4769 27.9058 22.4769 26.7202 22.4769C25.5347 22.4769 24.3491 22.4769 23.1636 22.4769C22.9812 22.4769 22.7988 22.4769 22.6164 22.4769C22.2516 22.2978 22.2516 22.2083 22.2516 22.1187Z" fill="#019FF8"/>
<defs>
<linearGradient id="paint0_linear" x1="7.38754" y1="34.8133" x2="12.8022" y2="30.1864" gradientUnits="userSpaceOnUse">
<stop stop-color="#004E79"/>
<stop offset="0.0289346" stop-color="#005788"/>
<stop offset="0.2501" stop-color="#0472B0"/>
<stop offset="0.4548" stop-color="#0291E2"/>
<stop offset="0.6353" stop-color="#039AEF"/>
<stop offset="0.7723" stop-color="#019FF8"/>
</linearGradient>
</defs>
</svg>
