<svg width="114" height="34" viewBox="0 0 114 34" fill="none" xmlns="http://www.w3.org/2000/svg">
<path fill-rule="evenodd" clip-rule="evenodd" d="M4.9515 0C2.21686 0 0 2.21686 0 4.9515V28.8591C0 31.5938 2.21686 33.8106 4.9515 33.8106H108.878C111.612 33.8106 113.829 31.5938 113.829 28.8591V4.9515C113.829 2.21686 111.612 0 108.878 0H4.9515Z" fill="black"/>
<path d="M16.6463 12.6865C16.4634 12.8695 16.3414 13.1744 16.3414 13.5403V27.0175C16.3414 27.3834 16.4634 27.6883 16.6463 27.8713L16.7073 27.9323L24.2086 20.3704V20.3094V20.2484L16.6463 12.6865Z" fill="#5BC9F4"/>
<path d="M26.7092 22.8711L24.2088 20.3708V20.3098V20.2488L26.7092 17.6875L26.7702 17.7485L29.7585 19.456C30.6123 19.9439 30.6123 20.7367 29.7585 21.2245L26.7092 22.8711Z" fill="url(#paint0_linear)"/>
<path d="M26.7702 22.8718L24.2087 20.3105L16.6465 27.8724C16.9514 28.1774 17.3783 28.1774 17.9272 27.9334L26.7702 22.8718Z" fill="url(#paint1_linear)"/>
<path d="M26.7693 17.6878L17.8653 12.6262C17.3774 12.3213 16.8895 12.3823 16.6456 12.6872L24.2688 20.3101L26.7693 17.6878Z" fill="url(#paint2_linear)"/>
<path fill-rule="evenodd" clip-rule="evenodd" d="M93.0221 26.5301L96.994 17.373H95.7003L93.8632 21.9386H93.8372L91.9484 17.373H90.6545L93.268 23.3264L91.7932 26.5301H93.0221Z" fill="white"/>
<path fill-rule="evenodd" clip-rule="evenodd" d="M87.4848 17.373C85.8951 17.373 85.1324 18.3218 84.9129 18.8985L85.9983 19.3599C86.2181 18.7702 86.8514 18.4499 87.5107 18.4499C88.4026 18.4499 89.165 19.0266 89.165 19.9754V20.1549C88.9193 20.0138 88.2991 19.7701 87.446 19.7701C85.9596 19.7701 84.6672 20.5394 84.6672 21.9622C84.6672 23.27 85.7398 24.0647 87.0324 24.0647C88.1181 24.0647 88.7643 23.5135 89.1132 22.9879H89.165V23.8595H90.3023V20.065C90.3023 18.2961 89.0356 17.373 87.4848 17.373ZM87.2265 22.9881C86.6063 22.9881 85.9083 22.6548 85.9083 21.9882C85.9083 21.4111 86.3994 20.7448 87.6532 20.7448C88.6611 20.7448 89.1653 21.1547 89.1653 21.1547C89.1653 22.1804 88.17 22.9881 87.2265 22.9881Z" fill="white"/>
<path fill-rule="evenodd" clip-rule="evenodd" d="M82.9058 14.9082H83.9624V24.0652H82.9058V14.9082Z" fill="white"/>
<path fill-rule="evenodd" clip-rule="evenodd" d="M78.9838 14.9082H75.8621V24.0652H77.0391V20.3564H78.9838C80.5059 20.3564 81.8494 19.2311 81.8494 17.6324C81.8494 16.0338 80.5059 14.9082 78.9838 14.9082ZM79.0092 19.2311H77.0391V16.0338H79.0092C80.0581 16.0338 80.6466 16.9034 80.6466 17.6324C80.6466 18.3612 80.0581 19.2311 79.0092 19.2311Z" fill="white"/>
<path fill-rule="evenodd" clip-rule="evenodd" d="M67.5805 20.9463C67.545 19.7566 68.5164 19.1504 69.2156 19.1504C69.7607 19.1504 70.2226 19.4186 70.3766 19.8033L67.5805 20.9463ZM69.3223 24.1186C70.7559 24.1186 71.5851 23.2555 71.9288 22.7543L70.8625 22.0544C70.507 22.5676 70.0211 22.9059 69.3223 22.9059C68.6231 22.9059 68.1254 22.591 67.8057 21.9728L71.988 20.2701L71.8458 19.9202C71.5851 19.2323 70.7914 17.9609 69.1682 17.9609C67.5568 17.9609 66.218 19.209 66.218 21.0399C66.218 22.7659 67.545 24.1186 69.3223 24.1186Z" fill="white"/>
<path fill-rule="evenodd" clip-rule="evenodd" d="M64.18 23.9316H65.5544V14.8818H64.18V23.9316Z" fill="white"/>
<path fill-rule="evenodd" clip-rule="evenodd" d="M63.2321 23.6754C63.2321 25.9496 61.8696 26.8824 60.2582 26.8824C58.7416 26.8824 57.8291 25.8796 57.4855 25.0631L58.6824 24.5735C58.8957 25.0748 59.4168 25.6697 60.2582 25.6697C61.2889 25.6697 61.9288 25.0398 61.9288 23.862V23.4188H61.8814C61.5733 23.7921 60.9808 24.1186 60.2345 24.1186C58.6705 24.1186 57.2369 22.7776 57.2369 21.0516C57.2369 19.314 58.6705 17.9609 60.2345 17.9609C60.9808 17.9609 61.5733 18.2875 61.8814 18.6491H61.9288V18.1476H63.2321V23.6754ZM58.6109 21.0514C58.6109 22.1242 59.4046 22.9057 60.3526 22.9057C61.2885 22.9057 62.0233 22.1242 62.0233 21.0514C62.0233 19.9667 61.2885 19.1738 60.3526 19.1738C59.4046 19.1738 58.6109 19.9667 58.6109 21.0514Z" fill="white"/>
<path fill-rule="evenodd" clip-rule="evenodd" d="M56.6682 21.0399C56.6682 22.8126 55.2582 24.1186 53.5284 24.1186C51.7985 24.1186 50.3886 22.8126 50.3886 21.0399C50.3886 19.2556 51.7985 17.9609 53.5284 17.9609C55.2582 17.9609 56.6682 19.2556 56.6682 21.0399ZM51.7629 21.0398C51.7629 22.1359 52.5803 22.9057 53.5283 22.9057C54.4761 22.9057 55.2937 22.1359 55.2937 21.0398C55.2937 19.9317 54.4761 19.1738 53.5283 19.1738C52.5803 19.1738 51.7629 19.9317 51.7629 21.0398Z" fill="white"/>
<path fill-rule="evenodd" clip-rule="evenodd" d="M49.8197 21.0399C49.8197 22.8126 48.4098 24.1186 46.6799 24.1186C44.95 24.1186 43.5398 22.8126 43.5398 21.0399C43.5398 19.2556 44.95 17.9609 46.6799 17.9609C48.4098 17.9609 49.8197 19.2556 49.8197 21.0399ZM44.9144 21.0398C44.9144 22.1359 45.7318 22.9057 46.6798 22.9057C47.6276 22.9057 48.4453 22.1359 48.4453 21.0398C48.4453 19.9317 47.6276 19.1738 46.6798 19.1738C45.7318 19.1738 44.9144 19.9317 44.9144 21.0398Z" fill="white"/>
<path fill-rule="evenodd" clip-rule="evenodd" d="M38.5278 24.1187C39.9736 24.1187 41.0635 23.6521 41.9165 22.7776C42.7934 21.9145 43.066 20.7017 43.066 19.7219C43.066 19.419 43.0423 19.139 42.9949 18.9057H38.5278V20.2118H41.7031C41.6083 20.9467 41.3598 21.4829 40.9806 21.8562C40.5184 22.311 39.7955 22.8126 38.5278 22.8126C36.5728 22.8126 35.0443 21.2616 35.0443 19.3373C35.0443 17.413 36.5728 15.862 38.5278 15.862C39.5825 15.862 40.3525 16.27 40.9213 16.7949L41.8572 15.8737C41.0635 15.1272 40.0088 14.5557 38.5278 14.5557C35.8502 14.5557 33.5989 16.7015 33.5989 19.3373C33.5989 21.9728 35.8502 24.1187 38.5278 24.1187Z" fill="white"/>
<path fill-rule="evenodd" clip-rule="evenodd" d="M37.1119 9.73944C37.0697 9.79447 37.011 9.85547 36.9358 9.92242C36.8606 9.98937 36.7638 10.0517 36.6455 10.1095C36.5272 10.1673 36.385 10.2159 36.219 10.2554C36.053 10.2948 35.8581 10.3145 35.6343 10.3145C35.383 10.3145 35.1523 10.2714 34.9423 10.1852C34.7323 10.099 34.552 9.97424 34.4016 9.81098C34.2512 9.64773 34.1343 9.44687 34.0508 9.2084C33.9673 8.96993 33.9256 8.69754 33.9256 8.3912V8.12706C33.9256 7.82255 33.9632 7.55061 34.0384 7.31123C34.1136 7.07185 34.2219 6.86961 34.3631 6.70452C34.5043 6.53943 34.6768 6.41378 34.8804 6.32756C35.084 6.24135 35.3151 6.19824 35.5738 6.19824C35.8177 6.19824 36.0305 6.22988 36.2121 6.29317C36.3937 6.35645 36.5469 6.44496 36.6716 6.55869C36.7964 6.67242 36.8945 6.8077 36.966 6.96454C37.0376 7.12138 37.0853 7.29334 37.1091 7.48045H36.4267C36.4102 7.37589 36.3827 7.27959 36.3442 7.19154C36.3057 7.10349 36.2529 7.02737 36.186 6.96316C36.119 6.89896 36.0365 6.84852 35.9383 6.81183C35.8402 6.77514 35.7233 6.7568 35.5875 6.7568C35.4243 6.7568 35.2826 6.78707 35.1624 6.8476C35.0423 6.90813 34.9423 6.99664 34.8625 7.11312C34.7827 7.2296 34.7231 7.37268 34.6837 7.54236C34.6442 7.71204 34.6245 7.9051 34.6245 8.12155V8.3912C34.6245 8.61132 34.6483 8.80622 34.696 8.9759C34.7437 9.14558 34.8121 9.28819 34.901 9.40376C34.99 9.51932 35.0982 9.60737 35.2257 9.6679C35.3532 9.72844 35.4976 9.7587 35.6591 9.7587C35.7783 9.7587 35.8806 9.75091 35.9659 9.73532C36.0512 9.71972 36.1232 9.70001 36.1819 9.67616C36.2406 9.65231 36.2887 9.62617 36.3263 9.59774C36.3639 9.56931 36.3946 9.54225 36.4185 9.51657V8.73239H35.593V8.2041H37.1119V9.73944ZM40.2186 8.47114H38.5732V9.70382H40.4965V10.2596H37.8771V6.25342H40.4773V6.81473H38.5732V7.92083H40.2186V8.47114ZM43.9578 6.81473H42.7086V10.2596H42.018V6.81473H40.7798V6.25342H43.9578V6.81473ZM46.6215 10.2596H45.9281V6.25342H46.6215V10.2596ZM50.372 6.81473H49.1228V10.2596H48.4321V6.81473H47.194V6.25342H50.372V6.81473ZM55.4978 8.36105C55.4978 8.66555 55.4579 8.93841 55.3781 9.17963C55.2983 9.42084 55.1859 9.62537 55.041 9.79321C54.8961 9.96106 54.7219 10.0899 54.5182 10.1798C54.3146 10.2697 54.089 10.3146 53.8414 10.3146C53.5956 10.3146 53.3709 10.2697 53.1672 10.1798C52.9636 10.0899 52.788 9.96106 52.6403 9.79321C52.4927 9.62537 52.378 9.42084 52.2964 9.17963C52.2148 8.93841 52.1739 8.66555 52.1739 8.36105V8.15744C52.1739 7.85294 52.2148 7.57962 52.2964 7.33749C52.378 7.09535 52.4917 6.88991 52.6376 6.72115C52.7834 6.55239 52.9581 6.42307 53.1617 6.33318C53.3654 6.2433 53.5901 6.19836 53.8359 6.19836C54.0835 6.19836 54.3096 6.2433 54.5141 6.33318C54.7186 6.42307 54.8938 6.55239 55.0397 6.72115C55.1855 6.88991 55.2983 7.09535 55.3781 7.33749C55.4579 7.57962 55.4978 7.85294 55.4978 8.15744V8.36105ZM54.8014 8.15177C54.8014 7.92798 54.7799 7.73033 54.7367 7.55882C54.6936 7.3873 54.6308 7.24377 54.5483 7.1282C54.4657 7.01264 54.3644 6.92505 54.2442 6.86543C54.1241 6.80582 53.9879 6.77601 53.8356 6.77601C53.687 6.77601 53.5531 6.80582 53.4339 6.86543C53.3147 6.92505 53.2133 7.01264 53.1299 7.1282C53.0464 7.24377 52.9822 7.3873 52.9373 7.55882C52.8923 7.73033 52.8698 7.92798 52.8698 8.15177V8.36088C52.8698 8.58467 52.8923 8.78278 52.9373 8.95521C52.9822 9.12764 53.0469 9.27209 53.1312 9.38857C53.2156 9.50506 53.3179 9.5931 53.438 9.65272C53.5582 9.71234 53.6925 9.74214 53.8411 9.74214C54.1493 9.74214 54.3864 9.62475 54.5524 9.38995C54.7184 9.15515 54.8014 8.81213 54.8014 8.36088V8.15177ZM59.3689 10.2596H58.6728L56.887 7.41731V10.2596H56.1909V6.25342H56.887L58.6783 9.10674V6.25342H59.3689V10.2596Z" fill="white"/>
<defs>
<linearGradient id="paint0_linear" x1="29.2183" y1="20.2787" x2="14.4751" y2="20.2787" gradientUnits="userSpaceOnUse">
<stop stop-color="#FEE000"/>
<stop offset="0.1941" stop-color="#FCCF0B"/>
<stop offset="0.5469" stop-color="#FAB318"/>
<stop offset="0.8279" stop-color="#F9A21B"/>
<stop offset="1" stop-color="#F99B1C"/>
</linearGradient>
<linearGradient id="paint1_linear" x1="25.3923" y1="21.6775" x2="11.5263" y2="35.5442" gradientUnits="userSpaceOnUse">
<stop stop-color="#EF4547"/>
<stop offset="1" stop-color="#C6186D"/>
</linearGradient>
<linearGradient id="paint2_linear" x1="11.4629" y1="4.95264" x2="22.7841" y2="16.2744" gradientUnits="userSpaceOnUse">
<stop stop-color="#279E6F"/>
<stop offset="0.3168" stop-color="#4DAB6D"/>
<stop offset="0.7398" stop-color="#6ABA6A"/>
<stop offset="1" stop-color="#74C169"/>
</linearGradient>
</defs>
</svg>
